<?xml version="1.0" standalone="no"?><!DOCTYPE svg PUBLIC "-//W3C//DTD SVG 1.1//EN" "http://www.w3.org/Graphics/SVG/1.1/DTD/svg11.dtd"><svg t="1554433699542" class="icon" style="" viewBox="0 0 1024 1024" version="1.1" xmlns="http://www.w3.org/2000/svg" p-id="1351" xmlns:xlink="http://www.w3.org/1999/xlink" width="200" height="200"><defs><style type="text/css"></style></defs><path d="M893.141439 1024H130.858561a127.047146 127.047146 0 0 1-127.047147-127.047146V448.476427a127.047146 127.047146 0 0 1 37.267163-89.779984L424.760959 35.149711a127.047146 127.047146 0 0 1 177.019024 2.540942l378.600497 318.888338a127.047146 127.047146 0 0 1 39.808106 91.897436v273.574855a42.349049 42.349049 0 0 1-84.698098 0v-273.574855a42.349049 42.349049 0 0 0-12.281224-30.067825l-378.600496-318.464847a42.349049 42.349049 0 0 0-62.676593-2.540943L98.249793 420.949545a42.349049 42.349049 0 0 0-9.740281 27.526882v448.476427a42.349049 42.349049 0 0 0 42.349049 42.349048h762.282878a42.349049 42.349049 0 0 0 42.349049-42.349048 42.349049 42.349049 0 1 1 84.698098 0 127.047146 127.047146 0 0 1-24.562449 74.957816A127.047146 127.047146 0 0 1 893.141439 1024z" p-id="1352"></path><path d="M88.509512 981.650951a42.349049 42.349049 0 0 1-22.021505-78.769231l846.980976-508.188585a42.349049 42.349049 0 1 1 42.349048 72.416873l-846.980976 508.188586a42.349049 42.349049 0 0 1-20.327543 6.352357z" p-id="1353"></path><path d="M935.490488 981.650951a42.349049 42.349049 0 0 1-21.598015-5.928867l-846.980976-508.188585a42.349049 42.349049 0 0 1 42.349049-72.416874l846.980976 508.188586a42.349049 42.349049 0 0 1-20.751034 78.34574z" p-id="1354"></path></svg>