<?xml version="1.0" standalone="no"?><!DOCTYPE svg PUBLIC "-//W3C//DTD SVG 1.1//EN" "http://www.w3.org/Graphics/SVG/1.1/DTD/svg11.dtd"><svg t="1557408953282" class="icon" style="" viewBox="0 0 1024 1024" version="1.1" xmlns="http://www.w3.org/2000/svg" p-id="3281" xmlns:xlink="http://www.w3.org/1999/xlink" width="200" height="200"><defs><style type="text/css"></style></defs><path d="M229.496369 758.521626 229.496369 758.521626C229.520929 758.038626 229.507626 758.284219 229.496369 758.521626L229.496369 758.521626zM840.886007 605.13212c-11.181667-30.128181-28.401864-50.484811-64.99734-46.358841-2.712785 0.306992-39.524179 4.163833-44.88528 5.29254-7.738241 2.807952-24.780383 5.89629-24.520463 6.687306-170.549328 36.776601-336.817142 35.925211-510.288009 0 19.034519-53.513798 35.494399-102.978373 54.791907-151.245679 3.684926-9.242502 17.866926-17.45965 28.643364-20.044522 26.148543-6.238075 42.211381-12.279674 68.849064-12.075013 2.523473 0.019443 1.408069-0.071631 13.115716-0.25071-0.75213-1.7519-13.237489-34.180474-13.237489-51.571562 0-2.702552 0.164752-5.368264 0.453325-7.998161-15.211447 2.203178-30.439266 4.408403-45.524846 7.317663-57.418734 11.048637-102.382808 36.114522-118.786407 98.429777-9.771551 37.058011-24.473391 72.91466-38.168298 108.825544-2.65241 6.947226-11.585873 17.292851-16.433274 16.675798-40.09109-5.110391-55.738465 19.435655-66.430992 51.231825-1.947352 7.373944-0.837064 14.139022 0 19.664875 15.405875 4.096295 30.78105 8.182356 41.60763 11.025101-0.756223 58.093093-1.62501 115.808586-2.190899 173.521009-0.297782 31.078833-1.542122 62.266136 0.591471 93.205798 1.028423 14.291494 6.333242 36.573987 14.132882 42.095747 5.740748 7.659447 108.718097 7.387247 127.938857 0 8.795317-3.38305 13.154601-48.756447 20.464077-75.774801l377.392256 0c9.257851 25.53149-8.501628 57.016575 20.357654 75.774801 8.634658 5.952572 119.735012 6.358825 124.715443-2.220574 5.28026-3.301186 12.856819-23.713075 13.104459-36.81651 1.459235-73.468269 1.027399-146.96519 0.401136-220.437551-0.080841-16.105816-3.650133-32.214702-5.629207-48.077995 14.024411-3.866051 29.29214-8.065699 44.537356-12.296047C842.078159 623.592564 843.566046 614.364389 840.886007 605.13212L840.886007 605.13212zM295.926338 736.675062c-3.03308 8.256034-15.184841 16.028045-24.771173 18.270109-13.180184 3.090385-27.774577 3.577478-41.658795 3.577478-0.030699 0.453325-0.01842 0.229221-0.004093 0-20.274766-2.142803-40.872896-2.712785-60.715827-6.851035-25.799596-5.387707-33.056883-24.638143-25.285896-59.151191 5.335519-23.604604 23.769356-24.633027 40.311101-19.190061 33.212426 10.903328 65.751516 24.252357 97.452519 38.950104C288.857339 715.804732 298.065048 730.829937 295.926338 736.675062L295.926338 736.675062zM740.369709 750.508115c-21.271466 4.954849-43.472094 5.736655-61.393255 7.906064-20.463054-1.681292-37.061081-1.356904-52.843532-4.79112-19.682271-4.312212-25.876344-27.532053-8.584516-35.95284 37.658691-18.299785 77.395718-32.94432 117.433596-45.369304 16.028045-4.981455 27.070542 8.393157 27.640524 26.179242C763.302001 719.269647 769.447978 743.820809 740.369709 750.508115L740.369709 750.508115zM949.913143 590.003562l-127.585817-127.790478c-2.764973-2.77316-5.945409-4.886287-9.337669-6.350638 32.458249-41.028439 51.836599-92.875271 51.836599-149.244093 0-132.98171-107.807355-240.772692-240.771669-240.772692-132.964314 0-240.772692 107.790982-240.772692 240.772692 0 132.962268 107.804285 240.772692 240.772692 240.772692 56.426127 0 108.314914-19.419282 149.363819-51.928696 1.459235 3.375887 3.564175 6.545066 6.320962 9.31004l127.584794 127.793548c11.730159 11.753695 30.803563 11.753695 42.562375 0.029676C961.641255 620.866477 961.641255 601.792049 949.913143 590.003562L949.913143 590.003562zM624.05561 487.195058c-99.725282 0-180.580798-80.852446-180.580798-180.577728 0-99.728352 80.855516-180.580798 180.580798-180.580798s180.576705 80.852446 180.576705 180.580798C804.637432 406.342612 723.780893 487.195058 624.05561 487.195058L624.05561 487.195058zM624.05561 487.195058" p-id="3282"></path></svg>