<?xml version="1.0" standalone="no"?><!DOCTYPE svg PUBLIC "-//W3C//DTD SVG 1.1//EN" "http://www.w3.org/Graphics/SVG/1.1/DTD/svg11.dtd"><svg t="1554433848288" class="icon" style="" viewBox="0 0 1498 1024" version="1.1" xmlns="http://www.w3.org/2000/svg" p-id="1838" xmlns:xlink="http://www.w3.org/1999/xlink" width="292.578125" height="200"><defs><style type="text/css"></style></defs><path d="M749.190535 1024c-339.20797 0-617.205479-302.22665-721.13574-432.298879a127.521793 127.521793 0 0 1 0-159.402242C131.985056 302.22665 409.344956 0 749.190535 0s617.205479 302.22665 721.135741 432.298879a127.521793 127.521793 0 0 1 0 159.402242c-104.56787 130.072229-381.927771 432.298879-721.135741 432.298879z m0-896.478207C457.165629 127.521793 199.571606 422.097136 127.521793 510.087173c72.049813 90.540473 329.643836 382.56538 621.031134 382.56538s548.98132-293.937733 621.031133-382.56538c-71.412204-87.990037-329.006227-382.56538-620.393525-382.56538z" p-id="1839"></path><path d="M749.190535 768.956413a255.043587 255.043587 0 1 1 84.801993-495.422166 63.760897 63.760897 0 1 1-42.719801 120.508094 127.521793 127.521793 0 0 0-42.082192-7.013698 127.521793 127.521793 0 1 0 127.521794 127.521793 63.760897 63.760897 0 0 1 127.521793 0 255.043587 255.043587 0 0 1-255.043587 254.405977z" p-id="1840"></path></svg>