<?xml version="1.0" standalone="no"?><!DOCTYPE svg PUBLIC "-//W3C//DTD SVG 1.1//EN" "http://www.w3.org/Graphics/SVG/1.1/DTD/svg11.dtd"><svg t="1554433781019" class="icon" style="" viewBox="0 0 1365 1024" version="1.1" xmlns="http://www.w3.org/2000/svg" p-id="1716" xmlns:xlink="http://www.w3.org/1999/xlink" width="266.6015625" height="200"><defs><style type="text/css"></style></defs><path d="M1091.124646 1023.997724h-910.218683A180.337076 180.337076 0 0 1 0 853.331721V170.66771a180.337076 180.337076 0 0 1 180.905963-170.666003H853.330015a56.888668 56.888668 0 0 1 0 113.777335H180.905963A67.128628 67.128628 0 0 0 113.777335 170.66771v682.664011a67.128628 67.128628 0 0 0 67.128628 56.888668h910.218683c32.426541 0 46.648707-28.444334 46.648707-56.888668v-170.666002a56.888668 56.888668 0 0 1 113.777335 0v170.666002a162.132703 162.132703 0 0 1-160.426042 170.666003z" p-id="1717"></path><path d="M1194.662021 398.22238a56.888668 56.888668 0 0 1-56.888668-56.888667V170.66771a56.888668 56.888668 0 0 0-56.888668-56.888668 56.888668 56.888668 0 0 1 0-113.777335 170.666003 170.666003 0 0 1 170.666003 170.666003v170.666003a56.888668 56.888668 0 0 1-56.888667 56.888667z" p-id="1718"></path><path d="M1251.550688 739.554386h-341.332006a113.777335 113.777335 0 0 1-113.777335-113.777335V398.22238a113.777335 113.777335 0 0 1 113.777335-113.777335h341.332006a113.777335 113.777335 0 0 1 113.777336 113.777335v227.554671a113.777335 113.777335 0 0 1-113.777336 113.777335z m0-341.332006h-341.332006v227.554671h341.332006z" p-id="1719"></path><path d="M1034.235978 511.999716m-56.888668 0a56.888668 56.888668 0 1 0 113.777336 0 56.888668 56.888668 0 1 0-113.777336 0Z" p-id="1720"></path></svg>