<?xml version="1.0" standalone="no"?><!DOCTYPE svg PUBLIC "-//W3C//DTD SVG 1.1//EN" "http://www.w3.org/Graphics/SVG/1.1/DTD/svg11.dtd"><svg t="1555739585112" class="icon" style="" viewBox="0 0 1024 1024" version="1.1" xmlns="http://www.w3.org/2000/svg" p-id="2232" xmlns:xlink="http://www.w3.org/1999/xlink" width="200" height="200"><defs><style type="text/css"></style></defs><path d="M441.25 163.5h-68c-22.091 0-40 17.909-40 40v68c0 22.091 17.909 40 40 40h68c22.091 0 40-17.909 40-40v-68c0-22.091-17.909-40-40-40z m-6 102h-56v-56h56v56zM652.999 163.5h-68c-22.092 0-40 17.909-40 40v68c0 22.091 17.908 40 40 40h68c22.092 0 40-17.909 40-40v-68c0-22.091-17.908-40-40-40z m-6 102h-56v-56h56v56zM441.25 413h-68c-22.091 0-40 17.909-40 40v68c0 22.092 17.909 40 40 40h68c22.091 0 40-17.908 40-40v-68c0-22.091-17.909-40-40-40z m-6 102h-56v-56h56v56zM652.999 413h-68c-22.092 0-40 17.909-40 40v68c0 22.092 17.908 40 40 40h68c22.092 0 40-17.908 40-40v-68c0-22.091-17.908-40-40-40z m-6 102h-56v-56h56v56zM441.25 662.5h-68c-22.091 0-40 17.908-40 40v68c0 22.092 17.909 40 40 40h68c22.091 0 40-17.908 40-40v-68c0-22.092-17.909-40-40-40z m-6 102h-56v-56h56v56zM652.999 662.5h-68c-22.092 0-40 17.908-40 40v68c0 22.092 17.908 40 40 40h68c22.092 0 40-17.908 40-40v-68c0-22.092-17.908-40-40-40z m-6 102h-56v-56h56v56z" fill="#999999" p-id="2233"></path><path d="M961.5 904h-9.18c0.002-0.167 0.014-0.332 0.014-0.5v-449c0-28.719-24.476-52-54.668-52-30.191 0-54.666 23.281-54.666 52v449c0 0.168 0.012 0.333 0.014 0.5H802.76c0.265-2.966 0.407-5.966 0.407-9V100c0-55.229-44.771-100-100-100h-380c-55.229 0-100 44.771-100 100v795c0 3.034 0.143 6.034 0.408 9H183.32c0.001-0.167 0.013-0.332 0.013-0.5v-449c0-28.719-24.475-52-54.667-52-30.191 0-54.666 23.281-54.666 52v449c0 0.168 0.012 0.333 0.013 0.5H63.5c-39.212 0-63 26.863-63 60s23.788 60 63 60h898c39.212 0 63-26.863 63-60s-23.788-60-63-60z m-78.5-0.5v-449c0-6.505 6.716-12 14.666-12 7.951 0 14.668 5.495 14.668 12v449c0 0.168-0.023 0.333-0.032 0.5h-29.27c-0.009-0.167-0.032-0.332-0.032-0.5zM273.167 895V100c0-27.57 22.43-50 50-50h380c27.57 0 50 22.43 50 50v795c0 3.073-0.294 6.078-0.827 9H273.994a50.006 50.006 0 0 1-0.827-9zM114 903.5v-449c0-6.505 6.717-12 14.667-12s14.667 5.495 14.667 12v449c0 0.168-0.023 0.333-0.032 0.5h-29.269c-0.01-0.167-0.033-0.332-0.033-0.5z" fill="#999999" p-id="2234"></path></svg>