<?xml version="1.0" standalone="no"?><!DOCTYPE svg PUBLIC "-//W3C//DTD SVG 1.1//EN" "http://www.w3.org/Graphics/SVG/1.1/DTD/svg11.dtd"><svg t="1584242604980" class="icon" viewBox="0 0 1024 1024" version="1.1" xmlns="http://www.w3.org/2000/svg" p-id="2054" xmlns:xlink="http://www.w3.org/1999/xlink" width="200" height="200"><defs><style type="text/css"></style></defs><path d="M322.005296 380.845914c-35.604916 0-64.46829 28.863375-64.46829 64.46829s28.863375 64.46829 64.46829 64.46829 64.46829-28.863375 64.46829-64.46829S357.610212 380.845914 322.005296 380.845914zM956.892091 194.038298c-6.625908-37.278022-39.628556-65.643046-79.473029-65.961294l-741.684146 0.319272c-40.947598 3.572362-73.15309 36.845163-74.031087 77.716013l0.312108 487.586984c3.778046 40.608883 38.606273 72.427566 81.026408 72.427566l43.233664 0 0 0.217964 120.105449-0.217964c22.491247 0 40.690748-17.85567 40.690748-39.878243 0-22.023596-18.199501-39.880289-40.690748-39.880289l-162.988118 0.278339-0.275269-432.457386c1.556449-37.185924 9.631358-44.608987 51.381228-46.062082l612.694353-0.26299 15.440667 0.104377c-1.926886-0.047072-3.928472-0.081864-5.996574-0.107447l58.884109-0.025583 0.030699 48.204885-0.335644-47.717791-52.582589-0.354064c44.200688 1.075495 51.726082 8.261151 52.92335 56.06183l0.270153 422.372703-364.677677 0.313132c-1.236154-0.046049-2.473331-0.039909-3.708462 0.023536-13.929244 0.272199-26.137287 7.40669-33.260521 18.096147L275.423375 898.384048c-15.893992 15.576767-15.893992 40.851407 0 56.410777 15.896038 15.57779 41.646516 15.57779 57.540508 0l193.359846-188.3129 307.186288-0.278339 0-0.075725 43.233664 0c40.795125 0 74.579579-29.426193 80.46973-67.798129L956.892091 194.038298zM143.299195 208.323653l-0.194428 27.618011-0.017396-27.791973 28.16241-0.01228L143.299195 208.323653zM574.761927 447.360817c0-35.604916-28.863375-64.46829-64.46829-64.46829s-64.46829 28.863375-64.46829 64.46829 28.863375 64.46829 64.46829 64.46829S574.761927 482.965733 574.761927 447.360817zM875.58632 633.061216c0.172939-7.664563 0.186242-16.425088 0.186242-26.450419L875.58632 633.061216zM144.264173 642.162502l0.306992 43.679825 54.663994 0.350994C153.53942 685.259042 145.596518 679.339216 144.264173 642.162502zM199.236182 686.193321c7.950066 0.162706 17.031908 0.176009 27.431769 0.176009L199.236182 686.193321zM144.264173 642.162502l-0.249687-35.551704C144.014486 620.859313 143.920342 632.550587 144.264173 642.162502zM794.391067 686.36933c12.791327 0 23.564695 0.041956 32.651654-0.212848L794.391067 686.36933zM875.58632 633.061216c-1.004887 44.716434-7.454786 51.945069-48.543599 53.095265l48.172139-0.314155L875.58632 633.061216zM767.143493 447.360817c0-35.604916-28.863375-64.46829-64.46829-64.46829s-64.46829 28.863375-64.46829 64.46829 28.863375 64.46829 64.46829 64.46829S767.143493 482.965733 767.143493 447.360817z" p-id="2055"></path></svg>