<?xml version="1.0" standalone="no"?><!DOCTYPE svg PUBLIC "-//W3C//DTD SVG 1.1//EN" "http://www.w3.org/Graphics/SVG/1.1/DTD/svg11.dtd"><svg t="1607504897854" class="icon" viewBox="0 0 1024 1024" version="1.1" xmlns="http://www.w3.org/2000/svg" p-id="3221" xmlns:xlink="http://www.w3.org/1999/xlink" width="200" height="200"><defs><style type="text/css"></style></defs><path d="M896 96c35.3456 0 64 28.6544 64 64v528c0 35.3456-28.6544 64-64 64H536v128h400c13.2544 0 24 10.7456 24 24 0 13.2544-10.7456 24-24 24H88c-13.2544 0-24-10.7456-24-24 0-13.2544 10.7456-24 24-24l400-0.0016V752H128c-35.3456 0-64-28.6544-64-64V160c0-35.3456 28.6544-64 64-64h768zM248.4512 364.7616l-34.9856 69.9712a24 24 0 0 1-20.9104 13.2608L192 448l-80-0.0016V688c0 8.8368 7.1632 16 16 16h768c8.8368 0 16-7.1632 16-16V447.9984L448 448a24 24 0 0 1-16.5152-6.5856l-0.456-0.4432-36.5408-36.5424-51.72 155.16c-7.5168 22.552-39.5776 21.5488-45.8688-1.0752l-0.1824-0.6928-48.2656-193.0592zM896 144H128c-8.8368 0-16 7.1632-16 16v239.9984l65.168 0.0016 57.3664-114.7328c9.864-19.7312 38.76-16.768 44.5792 4.2688l0.1696 0.6432 44.0112 176.0432 37.936-113.8112c5.5872-16.7568 26.696-21.8944 39.36-9.7552l0.3808 0.3728L457.9408 400 912 399.9984V160c0-8.8368-7.1632-16-16-16z" fill="#979797" p-id="3222"></path></svg>