<?xml version="1.0" standalone="no"?><!DOCTYPE svg PUBLIC "-//W3C//DTD SVG 1.1//EN" "http://www.w3.org/Graphics/SVG/1.1/DTD/svg11.dtd"><svg t="1588392131798" class="icon" viewBox="0 0 1024 1024" version="1.1" xmlns="http://www.w3.org/2000/svg" p-id="3037" xmlns:xlink="http://www.w3.org/1999/xlink" width="200" height="200"><defs><style type="text/css"></style></defs><path d="M311.644833 475.199862c-10.109242 0-18.303878 8.200776-18.303878 18.314112v83.227539c0 10.109242 8.194636 18.314111 18.303878 18.314111h4.072758c10.113335 0 18.303878-8.191566 18.303878-18.314111v-83.227539c0-10.113335-8.191566-18.314111-18.303878-18.314112h-4.072758z m0 0" p-id="3038"></path><path d="M315.717591 597.307921h-4.072758c-11.339256 0-20.567431-9.228175-20.567431-20.577664V493.51295c0-11.339256 9.228175-20.579711 20.567431-20.579711h4.072758c11.339256 0 20.567431 9.228175 20.567432 20.579711v83.22754c0 11.340279-9.228175 20.567431-20.567432 20.567431z m-4.072758-119.845529c-8.840342 0-16.038278 7.197936-16.038278 16.051582v83.227539c0 8.853645 7.197936 16.051581 16.038278 16.051581h4.072758c8.843412 0 16.041348-7.197936 16.041348-16.051581v-83.227539c0-8.853645-7.196912-16.051581-16.041348-16.051582h-4.072758z m72.874751-33.329082c-10.112312 0-18.316158 8.191566-18.316158 18.303878v114.304325c0 10.109242 8.203846 18.314111 18.316158 18.314111h4.069688c10.112312 0 18.314111-8.191566 18.314112-18.314111V462.437188c0-10.112312-8.191566-18.303878-18.314112-18.303878h-4.069688z m0 0" p-id="3039"></path><path d="M388.580063 597.307921h-4.072759c-11.339256 0-20.577664-9.228175-20.577664-20.577664v-114.293069c0-11.339256 9.228175-20.569478 20.577664-20.569478h4.072759c11.339256 0 20.579711 9.230222 20.579711 20.569478v114.304325c0 11.339256-9.230222 20.566408-20.579711 20.566408z m-4.060479-150.912081c-8.853645 0-16.051581 7.197936-16.051581 16.041348v114.304325c0 8.853645 7.197936 16.051581 16.051581 16.051581h4.069688c8.853645 0 16.051581-7.197936 16.051582-16.051581V462.437188c0-8.843412-7.197936-16.041348-16.051582-16.041348h-4.069688z m71.389933-34.08019c-10.112312 0-18.316158 8.203846-18.316157 18.314111v146.111752c0 10.109242 8.193613 18.314111 18.316157 18.314111h4.070712c10.112312 0 18.314111-8.191566 18.314111-18.314111V430.629761c0-10.109242-8.191566-18.314111-18.314111-18.314111h-4.070712z m0 0" p-id="3040"></path><path d="M459.969996 597.307921h-4.069688c-11.342326 0-20.579711-9.228175-20.579711-20.577664V430.629761c0-11.339256 9.228175-20.576641 20.579711-20.576641h4.069688c11.339256 0 20.578688 9.228175 20.578688 20.576641v146.111752c0 11.339256-9.229199 20.566408-20.578688 20.566408z m-4.060479-182.729741c-8.853645 0-16.050558 7.197936-16.050557 16.051581v146.111752c0 8.853645 7.196912 16.051581 16.050557 16.051581h4.070712c8.853645 0 16.050558-7.197936 16.050558-16.051581V430.629761c0-8.853645-7.196912-16.051581-16.050558-16.051581h-4.070712z m0 0" p-id="3041"></path><path d="M534.183232 621.908202H261.890662a7.40055 7.40055 0 0 1-7.40055-7.40055V318.592059a7.401574 7.401574 0 0 1 7.40055-7.400551h475.690026a7.40055 7.40055 0 0 1 7.400551 7.400551v66.567091c21.848611 6.610558 41.877783 17.392112 59.18803 31.410384V283.96133c0-16.344247-13.247722-29.594015-29.594015-29.594015H224.905306c-16.343223 0-29.594015 13.250792-29.594015 29.594015v365.825826c0 16.343223 13.250792 29.591969 29.594015 29.591969h349.742523c-17.104563-16.101723-30.951943-35.625382-40.464597-57.470923z m0 0" p-id="3042"></path><path d="M580.352761 681.643702H224.905306c-17.563004 0-31.856545-14.293541-31.856545-31.856546V283.96133c0-17.563004 14.293541-31.856545 31.856545-31.856545H774.575254c17.563004 0 31.856545 14.293541 31.856545 31.856545v137.359415l-3.684925-2.993171c-17.409508-14.112416-37.065174-24.537859-58.415435-31.005155l-1.603521-0.488117v-68.242243a5.14416 5.14416 0 0 0-5.13802-5.138021H261.890662a5.14416 5.14416 0 0 0-5.13802 5.138021v295.915593a5.142114 5.142114 0 0 0 5.13802 5.135974h273.774317l0.587378 1.360997c9.361205 21.503756 22.802332 40.588417 39.939641 56.732096l4.160763 3.906983zM224.905306 256.632915c-15.064091 0-27.328415 12.254092-27.328415 27.328415v365.825826c0 15.064091 12.264325 27.328415 27.328415 27.328416h344.160387c-15.33015-15.359826-27.544333-33.135678-36.356022-52.943816H261.890662c-5.328355 0-9.664104-4.334725-9.664104-9.664104V318.592059c0-5.331425 4.334725-9.66615 9.664104-9.666151h475.690026c5.331425 0 9.667174 4.334725 9.667174 9.666151v64.891939c19.806091 6.203282 38.159088 15.745612 54.656831 28.41619V283.96133c0-15.064091-12.263301-27.328415-27.328416-27.328415H224.905306z m0 0" p-id="3043"></path><path d="M694.230368 421.47424c-72.892147 0-132.191718 59.297524-132.191718 132.191718 0 72.892147 59.299571 132.191718 132.191718 132.191718 72.894194 0 132.191718-59.299571 132.191718-132.191718 0-72.894194-59.296501-132.191718-132.191718-132.191718z m76.639494 111.103424c-2.173502 0-4.334725-0.223081-6.457062-0.659009l-31.705096 52.964282c7.187703 5.106298 11.574616 13.481036 11.574617 22.37459 0 15.116279-12.296047 27.42256-27.42256 27.42256-15.116279 0-27.420513-12.296047-27.420513-27.42256 0-4.099365 0.924045-8.142447 2.680039-11.825326l-46.27186-34.387182a25.214265 25.214265 0 0 1-14.204513 1.929956L619.257839 583.817676a22.116717 22.116717 0 0 1 4.813633 13.805424c0 12.263301-9.981329 22.23542-22.245654 22.23542-12.263301 0-22.242584-9.981329-22.242583-22.23542 0-12.264325 9.978259-22.242584 22.242583-22.242584 1.087774 0 2.183735 0.081864 3.25923 0.242524l12.050454-20.294209a25.270547 25.270547 0 0 1-6.853081-17.268292c0-13.897521 11.30037-25.196869 25.199938-25.196869 13.897521 0 25.196869 11.30037 25.196868 25.196869 0 4.02978-0.963954 7.978718-2.790556 11.532661l45.480844 33.775244a27.366278 27.366278 0 0 1 13.277398-3.551896l33.08656-55.268767c-7.217379-6.243191-10.729365-14.07046-10.729366-23.846105 0-17.563004 14.293541-31.856545 31.856545-31.856545s31.856545 14.293541 31.856546 31.856545c0.001023 17.563004-14.283308 31.875988-31.847336 31.875988z m0 0" p-id="3044"></path><path d="M601.838098 619.877963c12.263301 0 22.242584-9.981329 22.242583-22.235421 0-5.043876-1.694595-9.887184-4.812609-13.805424l12.385075-20.841677c4.833075 0.751107 9.798157 0.049119 14.204514-1.927909l46.282092 34.374902a27.493168 27.493168 0 0 0-2.679015 11.825326c0 15.116279 12.30321 27.42256 27.419489 27.42256 15.117302 0 27.42256-12.294001 27.42256-27.42256 0-8.883321-4.386914-17.258059-11.574617-22.37459l31.70612-52.964282c2.121314 0.435928 4.285606 0.659009 6.457062 0.659009 17.563004 0 31.856545-14.293541 31.856545-31.856545s-14.314007-31.866778-31.877011-31.866778-31.856545 14.294564-31.856546 31.856545c0 9.775644 3.511987 17.602913 10.729366 23.846104l-33.085536 55.269792a27.293623 27.293623 0 0 0-13.277398 3.553942l-45.481867-33.777291a25.214265 25.214265 0 0 0 2.791579-11.532661c0-13.897521-11.30037-25.196869-25.196869-25.196868-13.899568 0-25.196869 11.30037-25.196868 25.196868a25.291013 25.291013 0 0 0 6.851035 17.270339l-12.050454 20.292162a22.225187 22.225187 0 0 0-3.257184-0.242524c-12.264325 0-22.245653 9.978259-22.245653 22.242584-0.002047 12.263301 9.979282 22.234397 22.243607 22.234397z m5.469571-39.146579l15.542998-26.163893-1.360997-1.239224a20.715811 20.715811 0 0 1-6.699586-15.238052c0-11.398608 9.269108-20.668739 20.668739-20.668739 11.401678 0 20.670785 9.269108 20.670785 20.668739 0 3.87833-1.085728 7.66661-3.137457 10.954493l-1.10517 1.777483 51.246151 38.06085 1.321088-0.852414a22.819728 22.819728 0 0 1 12.396331-3.656273c0.324388 0 0.648776 0.010233 0.963955 0.019443l1.340531 0.052189 36.477796-60.935838-1.573845-1.226944c-7.187703-5.613858-10.539031-12.45773-10.539031-21.553898 0-15.064091 12.253068-27.328415 27.330462-27.328416 15.064091 0 27.328415 12.264325 27.328416 27.328416 0 15.06716-12.243859 27.319206-27.308973 27.319205-2.354628 0-4.702092-0.304945-6.974855-0.902556l-1.645476-0.436952-35.713387 59.663868 1.958609 1.158383c6.945179 4.101411 11.260461 11.663644 11.260461 19.713994 0 12.621459-10.263761 22.89443-22.89443 22.894429-12.618389 0-22.892383-10.263761-22.892383-22.894429 0-3.978614 1.045819-7.909134 3.02387-11.358699l0.9967-1.747807-51.695382-38.395472-1.258667 0.662079a20.479427 20.479427 0 0 1-9.552563 2.344395c-1.50426 0-3.016707-0.163729-4.498454-0.49835l-1.603521-0.355088-15.72617 26.465769 1.14815 1.240247a17.621333 17.621333 0 0 1 4.721535 12.027941c0 9.767458-7.949043 17.706267-17.7165 17.706267-9.765411 0-17.704221-7.949043-17.704221-17.706267 0-9.765411 7.949043-17.705244 17.704221-17.705244 1.310855 0 2.619664 0.151449 3.898796 0.436952l1.601474 0.369413z m0 0" p-id="3045"></path><path d="M790.909268 456.985012c-25.826202-25.827225-60.159148-40.038902-96.6789-40.038901-36.516682 0-70.851675 14.22191-96.6789 40.038901-25.816992 25.829272-40.041972 60.162218-40.041971 96.680946 0 36.515658 14.224979 70.851675 40.041971 96.6789 25.815969 25.826202 60.162218 40.037878 96.6789 40.037879 36.519752 0 70.851675-14.22191 96.6789-40.037879 25.829272-25.816992 40.041972-60.151985 40.041971-96.6789 0-36.519752-14.22191-70.851675-40.041971-96.680946z m-96.6789-35.510772c72.894194 0 132.191718 59.297524 132.191718 132.191718 0 72.892147-59.296501 132.191718-132.191718 132.191718-72.892147 0-132.191718-59.299571-132.191718-132.191718 0.001023-72.894194 59.300594-132.191718 132.191718-132.191718z m-3.472078-2.223644c0.265036-0.01228 0.518816-0.01228 0.783852-0.01228-0.255827 0-0.518816 0.01228-0.783852 0.01228z m0 0M662.121066 709.703781h-326.250482c-16.346293 0-29.594015 13.247722-29.594016 29.594015v0.740874c0 16.346293 13.247722 29.594015 29.594016 29.594015h326.250482c16.343223 0 29.590945-13.247722 29.590945-29.594015v-0.740874c0-16.346293-13.247722-29.594015-29.590945-29.594015z m0 0" p-id="3046"></path><path d="M662.121066 771.895215h-326.250482c-17.566074 0-31.859615-14.293541-31.859615-31.856545v-0.740874c0-17.563004 14.293541-31.856545 31.859615-31.856545h326.250482c17.563004 0 31.856545 14.294564 31.856545 31.856545v0.740874c0.001023 17.572214-14.293541 31.856545-31.856545 31.856545z m-326.250482-59.915601c-15.06716 0-27.330462 12.263301-27.330462 27.328415v0.740874c0 15.06716 12.254092 27.328415 27.330462 27.328415h326.250482c15.064091 0 27.328415-12.261255 27.328415-27.328415v-0.740874c0-15.064091-12.254092-27.328415-27.328415-27.328415h-326.250482z m0 0" p-id="3047"></path><path d="M512 1011.964896c-67.48602 0-132.964314-13.222139-194.615443-39.298028-59.538001-25.181519-113.004727-61.228503-158.913313-107.138112-45.909609-45.909609-81.95557-99.376335-107.138112-158.913313-26.075889-61.651129-39.298028-127.129422-39.298028-194.615443S25.257244 379.035686 51.333132 317.384557c25.182542-59.538001 61.228503-113.004727 107.138112-158.913313S257.846556 76.514651 317.384557 51.332109C379.035686 25.25622 444.51398 12.035104 512 12.035104s132.964314 13.221116 194.615443 39.298028c59.539025 25.182542 113.004727 61.228503 158.914336 107.138112 45.908586 45.909609 81.95557 99.375312 107.137089 158.913313 26.075889 61.651129 39.298028 127.129422 39.298028 194.615443s-13.222139 132.964314-39.298028 194.615443c-25.181519 59.538001-61.228503 113.004727-107.137089 158.913313-45.909609 45.909609-99.375312 81.956593-158.914336 107.138112-61.652152 26.075889-127.129422 39.298028-194.615443 39.298028z m0-958.997544c-253.111718 0-459.032648 205.92093-459.032648 459.032648 0 253.111718 205.92093 459.033671 459.032648 459.033671s459.032648-205.92093 459.032648-459.033671c0-253.111718-205.921953-459.032648-459.032648-459.032648z" p-id="3048"></path></svg>