<?xml version="1.0" standalone="no"?><!DOCTYPE svg PUBLIC "-//W3C//DTD SVG 1.1//EN" "http://www.w3.org/Graphics/SVG/1.1/DTD/svg11.dtd"><svg t="1561184301401" class="icon" viewBox="0 0 1024 1024" version="1.1" xmlns="http://www.w3.org/2000/svg" p-id="2392" xmlns:xlink="http://www.w3.org/1999/xlink" width="200" height="200"><defs><style type="text/css"></style></defs><path d="M967.693307 992.493416 68.973859 992.493416c-21.281733 0-38.693507-17.411774-38.693507-38.693507l0-10.798141c0-21.281733 17.411774-38.693507 38.693507-38.693507l898.719448 0c21.281733 0 38.693507 17.411774 38.693507 38.693507l0 10.798141C1006.386814 975.081642 988.97504 992.493416 967.693307 992.493416z" p-id="2393"></path><path d="M780.572549 55.266146l0 880.312281c0 21.281733-17.411774 38.693507-38.693507 38.693507l-10.798141 0c-21.281733 0-38.693507-17.411774-38.693507-38.693507L692.387395 55.266146c0-21.281733 17.411774-38.693507 38.693507-38.693507l10.798141 0C763.15976 16.571625 780.572549 33.984413 780.572549 55.266146z" p-id="2394"></path><path d="M553.974956 347.447071l0 588.131356c0 21.281733-17.411774 38.693507-38.693507 38.693507l-10.798141 0c-21.281733 0-38.693507-17.411774-38.693507-38.693507L465.789802 347.447071c0-21.281733 17.411774-38.693507 38.693507-38.693507l10.798141 0C536.563183 308.753564 553.974956 326.165338 553.974956 347.447071z" p-id="2395"></path><path d="M310.465824 571.586113l0 363.9913c0 21.281733-17.411774 38.693507-38.693507 38.693507l-10.798141 0c-21.281733 0-38.693507-17.411774-38.693507-38.693507L222.28067 571.586113c0-21.281733 17.411774-38.693507 38.693507-38.693507l10.798141 0C293.05405 532.892606 310.465824 550.30438 310.465824 571.586113z" p-id="2396"></path></svg>