<?xml version="1.0" standalone="no"?><!DOCTYPE svg PUBLIC "-//W3C//DTD SVG 1.1//EN" "http://www.w3.org/Graphics/SVG/1.1/DTD/svg11.dtd"><svg t="1564380628917" class="icon" viewBox="0 0 1024 1024" version="1.1" xmlns="http://www.w3.org/2000/svg" p-id="3710" xmlns:xlink="http://www.w3.org/1999/xlink" width="200" height="200"><defs><style type="text/css"></style></defs><path d="M723.712 427.818667a21.248 21.248 0 0 0-27.050667 13.312 204.8 204.8 0 0 1-88.96 109.653333 20.906667 20.906667 0 0 0-5.802666 5.290667 20.906667 20.906667 0 0 0-8.106667 16.384v54.058666l-184.917333 23.04V572.501333a21.290667 21.290667 0 0 0-2.389334-9.429333 21.376 21.376 0 0 0-9.642666-13.226667 203.178667 203.178667 0 0 1-98.133334-174.677333 204.672 204.672 0 0 1 204.373334-204.458667 204.714667 204.714667 0 0 1 197.546666 151.296 21.290667 21.290667 0 1 0 41.130667-11.093333A247.338667 247.338667 0 0 0 503.082667 128.042667a247.381333 247.381333 0 0 0-247.04 247.125333c0 83.413333 41.130667 159.146667 110.165333 205.226667v93.44a21.376 21.376 0 0 0 23.978667 21.162666l227.541333-28.458666a21.333333 21.333333 0 0 0 18.688-21.162667v-62.848a247.04 247.04 0 0 0 100.608-127.616 21.333333 21.333333 0 0 0-13.312-27.050667" p-id="3711"></path><path d="M609.621333 723.626667l-215.125333 19.541333a21.376 21.376 0 0 0 1.92 42.624l1.962667-0.085333 215.125333-19.584a21.333333 21.333333 0 0 0 19.285333-23.168 20.992 20.992 0 0 0-23.168-19.328M548.309333 828.586667l-94.208 12.501333a21.333333 21.333333 0 1 0 5.589334 42.24l94.208-12.416a21.333333 21.333333 0 1 0-5.546667-42.282667" p-id="3712"></path></svg>