<?xml version="1.0" standalone="no"?><!DOCTYPE svg PUBLIC "-//W3C//DTD SVG 1.1//EN" "http://www.w3.org/Graphics/SVG/1.1/DTD/svg11.dtd"><svg t="1555747692881" class="icon" style="" viewBox="0 0 1024 1024" version="1.1" xmlns="http://www.w3.org/2000/svg" p-id="2483" xmlns:xlink="http://www.w3.org/1999/xlink" width="200" height="200"><defs><style type="text/css"></style></defs><path d="M843.093333 720.213333l-119.466666-64.853333c-6.826667-3.413333-17.066667-3.413333-20.48 3.413333C648.533333 716.8 580.266667 750.933333 508.586667 750.933333s-143.36-34.133333-197.973334-92.16c-6.826667-6.826667-13.653333-6.826667-20.48-3.413333l-109.226666 54.613333C75.093333 747.52 0 849.92 0 965.973333v40.96c0 10.24 6.826667 17.066667 17.066667 17.066667h989.866666c3.413333 0 10.24-3.413333 13.653334-3.413333s3.413333-6.826667 3.413333-13.653334v-30.72c0-116.053333-75.093333-221.866667-180.906667-256zM392.533333 409.6h34.133334c10.24 0 17.066667-6.826667 17.066666-17.066667s-6.826667-17.066667-17.066666-17.066666h-34.133334c-10.24 0-17.066667 6.826667-17.066666 17.066666s6.826667 17.066667 17.066666 17.066667zM597.333333 409.6h34.133334c10.24 0 17.066667-6.826667 17.066666-17.066667s-6.826667-17.066667-17.066666-17.066666h-34.133334c-10.24 0-17.066667 6.826667-17.066666 17.066666s6.826667 17.066667 17.066666 17.066667z" fill="" p-id="2484"></path><path d="M204.8 392.533333c0 58.026667 27.306667 102.4 61.44 102.4 37.546667 129.706667 136.533333 221.866667 242.346667 221.866667 112.64 0 215.04-85.333333 252.586666-204.8 34.133333 0 61.44-44.373333 61.44-102.4 0-51.2-13.653333-85.333333-34.133333-98.986667v-13.653333L785.066667 238.933333V153.6c0-6.826667-3.413333-10.24-6.826667-13.653333-3.413333-3.413333-10.24-3.413333-13.653333-3.413334L546.133333 201.386667c-10.24 3.413333-13.653333 3.413333-20.48 3.413333l-269.653333-23.893333c-3.413333 0-10.24 0-13.653333 3.413333 0 3.413333-3.413333 6.826667-3.413334 13.653333v95.573334c-20.48 10.24-34.133333 44.373333-34.133333 98.986666z m51.2-68.266666c3.413333 0 10.24-3.413333 13.653333-6.826667 3.413333-3.413333 3.413333-10.24 3.413334-20.48v-30.72c37.546667 13.653333 119.466667 40.96 238.933333 40.96s201.386667-27.306667 238.933333-40.96V324.266667c0 10.24 6.826667 17.066667 17.066667 17.066666 6.826667 0 17.066667 20.48 17.066667 68.266667 0 40.96-17.066667 68.266667-27.306667 68.266667h-3.413333c-3.413333-3.413333-10.24-3.413333-17.066667 0-3.413333 3.413333-10.24 6.826667-10.24 10.24-27.306667 112.64-122.88 194.56-221.866667 194.56-92.16 0-184.32-92.16-215.04-211.626667 0-6.826667-3.413333-10.24-10.24-10.24-3.413333-3.413333-10.24 0-17.066666 0h-3.413334c-10.24 0-27.306667-27.306667-27.306666-68.266667 6.826667-47.786667 17.066667-68.266667 23.893333-68.266666z" fill="" p-id="2485"></path><path d="M153.6 136.533333l375.466667 34.133334h3.413333L853.333333 75.093333v143.36l-30.72 64.853334c-3.413333 3.413333-3.413333 6.826667-3.413333 13.653333l34.133333 102.4c3.413333 6.826667 10.24 10.24 17.066667 10.24s13.653333-3.413333 17.066667-10.24l34.133333-102.4v-13.653333l-34.133333-64.853334V51.2v-3.413333-3.413334c0-3.413333-3.413333-3.413333-3.413334-3.413333l-3.413333-3.413333h-3.413333-3.413334l-375.466666-34.133334h-6.826667l-341.333333 102.4c-10.24 0-13.653333 6.826667-13.653334 13.653334 0 10.24 6.826667 17.066667 17.066667 17.066666z" fill="" p-id="2486"></path></svg>