<?xml version="1.0" standalone="no"?><!DOCTYPE svg PUBLIC "-//W3C//DTD SVG 1.1//EN" "http://www.w3.org/Graphics/SVG/1.1/DTD/svg11.dtd"><svg t="1554433916977" class="icon" style="" viewBox="0 0 1068 1024" version="1.1" xmlns="http://www.w3.org/2000/svg" p-id="1958" xmlns:xlink="http://www.w3.org/1999/xlink" width="208.59375" height="200"><defs><style type="text/css"></style></defs><path d="M934.956522 1024H133.565217a133.565217 133.565217 0 0 1-133.565217-133.565217 44.521739 44.521739 0 0 1 89.043478 0 44.521739 44.521739 0 0 0 44.521739 44.521739h801.391305a44.521739 44.521739 0 0 0 44.521739-44.521739V311.652174a44.521739 44.521739 0 0 0-44.521739-44.521739H133.565217a44.521739 44.521739 0 0 0-44.521739 44.521739v359.735652a44.521739 44.521739 0 1 1-89.043478 0V311.652174a133.565217 133.565217 0 0 1 133.565217-133.565217h801.391305a133.565217 133.565217 0 0 1 133.565217 133.565217v578.782609a133.565217 133.565217 0 0 1-133.565217 133.565217z" p-id="1959"></path><path d="M845.913043 489.73913H89.043478a44.521739 44.521739 0 0 1 0-89.043478h756.869565a44.521739 44.521739 0 0 1 0 89.043478z" p-id="1960"></path><path d="M756.869565 356.173913a44.521739 44.521739 0 0 1-44.521739-44.521739V133.565217a44.521739 44.521739 0 0 0-44.521739-44.521739H400.695652a44.521739 44.521739 0 0 0-44.521739 44.521739v178.086957a44.521739 44.521739 0 0 1-89.043478 0V133.565217a133.565217 133.565217 0 0 1 133.565217-133.565217h267.130435a133.565217 133.565217 0 0 1 133.565217 133.565217v178.086957a44.521739 44.521739 0 0 1-44.521739 44.521739z" p-id="1961"></path></svg>