<?xml version="1.0" standalone="no"?><!DOCTYPE svg PUBLIC "-//W3C//DTD SVG 1.1//EN" "http://www.w3.org/Graphics/SVG/1.1/DTD/svg11.dtd"><svg t="1557409686599" class="icon" style="" viewBox="0 0 1024 1024" version="1.1" xmlns="http://www.w3.org/2000/svg" p-id="4844" xmlns:xlink="http://www.w3.org/1999/xlink" width="200" height="200"><defs><style type="text/css"></style></defs><path d="M813.6704 294.6048c0-10.1376-8.2944-18.432-18.432-18.432s-18.432 8.2944-18.432 18.432l0 54.4768c0 10.1376 8.2944 18.432 18.432 18.432s18.432-8.2944 18.432-18.432L813.6704 294.6048zM813.6704 438.3744c0-10.1376-8.2944-18.432-18.432-18.432s-18.432 8.2944-18.432 18.432l0 54.4768c0 10.1376 8.2944 18.432 18.432 18.432s18.432-8.2944 18.432-18.432L813.6704 438.3744zM813.6704 580.9152c0-10.1376-8.2944-18.432-18.432-18.432s-18.432 8.2944-18.432 18.432l0 54.4768c0 10.1376 8.2944 18.432 18.432 18.432s18.432-8.2944 18.432-18.432L813.6704 580.9152zM795.2384 701.3376c-10.1376 0-18.432 8.2944-18.432 18.432l0 54.4768c0 10.1376 8.2944 18.432 18.432 18.432s18.432-8.2944 18.432-18.432l0-54.4768C813.6704 709.632 805.376 701.3376 795.2384 701.3376zM301.1584 340.1728c10.1376 0 18.432-8.2944 18.432-18.432s-8.2944-18.432-18.432-18.432l-100.352 0c-10.1376 0-18.432 8.2944-18.432 18.432s8.2944 18.432 18.432 18.432L301.1584 340.1728zM623.104 340.1728c10.1376 0 18.432-8.2944 18.432-18.432s-8.2944-18.432-18.432-18.432l-100.352 0c-10.1376 0-18.432 8.2944-18.432 18.432s8.2944 18.432 18.432 18.432L623.104 340.1728zM627.3024 675.4304c3.584 0 7.0656-1.024 10.24-3.1744 8.3968-5.632 10.6496-17.1008 5.0176-25.6L551.2192 510.976l74.5472 0c10.1376 0 18.432-8.2944 18.432-18.432s-8.2944-18.432-18.432-18.432L330.0352 474.112l32.4608-48.3328 263.168 0c10.1376 0 18.432-8.2944 18.432-18.432s-8.2944-18.432-18.432-18.432L387.3792 388.9152l68.9152-102.5024c5.632-8.3968 3.4816-19.8656-5.0176-25.6-8.3968-5.632-19.8656-3.4816-25.6 5.0176l-82.8416 123.0848L190.1568 388.9152c-10.1376 0-18.432 8.2944-18.432 18.432s8.2944 18.432 18.432 18.432l128 0L285.696 474.112l-95.5392 0c-10.1376 0-18.432 8.2944-18.432 18.432s8.2944 18.432 18.432 18.432l70.7584 0-91.2384 135.68c-5.632 8.3968-3.4816 19.8656 5.0176 25.6 3.1744 2.1504 6.7584 3.1744 10.24 3.1744 5.9392 0 11.776-2.8672 15.36-8.192L305.2544 510.976 506.88 510.976l105.1648 156.2624C615.5264 672.5632 621.3632 675.4304 627.3024 675.4304zM457.4208 707.2768c-10.1376 0-18.432 8.2944-18.432 18.432s8.2944 18.432 18.432 18.432l67.6864 0c10.1376 0 18.432-8.2944 18.432-18.432L543.5392 576.4096c0-10.1376-8.2944-18.432-18.432-18.432L363.1104 557.9776c0 0 0 0 0 0L290.816 557.9776c-10.1376 0-18.432 8.2944-18.432 18.432s8.2944 18.432 18.432 18.432l37.7856 0-85.0944 126.5664c-5.632 8.3968-3.4816 19.8656 5.0176 25.6 3.1744 2.1504 6.7584 3.1744 10.24 3.1744 5.9392 0 11.776-2.8672 15.36-8.192l99.0208-147.1488 133.7344 0 0 112.4352L457.4208 707.2768zM985.2928 407.2448c7.68-2.3552 13.0048-9.5232 13.0048-17.6128L998.2976 155.648c0-20.5824-16.7936-37.376-37.376-37.376L58.2656 118.272c-20.5824 0-37.376 16.7936-37.376 37.376l0 684.8512c0 20.5824 16.7936 37.376 37.376 37.376l663.7568 0.1024c0.3072 0 0.6144 0 1.024 0 0.512 0 49.0496-1.8432 78.336 23.8592 3.4816 3.072 7.8848 4.608 12.1856 4.608 5.12 0 10.24-2.1504 13.824-6.2464 6.7584-7.68 5.9392-19.2512-1.6384-26.0096-39.3216-34.6112-97.28-33.3824-104.0384-33.0752l-663.3472-0.1024c-0.3072 0-0.512-0.2048-0.512-0.512L57.856 155.648c0-0.3072 0.2048-0.512 0.512-0.512l718.5408 0c0 0.2048 0 0.4096 0 0.6144l0 54.4768c0 10.1376 8.2944 18.432 18.432 18.432s18.432-8.2944 18.432-18.432L813.7728 155.648c0-0.2048 0-0.4096 0-0.6144l147.2512 0c0.3072 0 0.512 0.2048 0.512 0.512l0 221.0816c-24.3712 10.0352-45.4656 26.3168-61.5424 47.5136-19.3536 25.4976-29.5936 56.0128-29.5936 88.1664 0 32.1536 10.24 62.5664 29.5936 88.1664 16.0768 21.1968 37.1712 37.4784 61.5424 47.5136l0 192.512c0 0.3072-0.2048 0.512-0.512 0.512l-78.1312 0c-10.1376 0-18.432 8.2944-18.432 18.432s8.2944 18.432 18.432 18.432l78.1312 0c20.5824 0 37.376-16.7936 37.376-37.376L998.4 634.9824c0-8.0896-5.2224-15.2576-13.0048-17.6128-46.7968-14.4384-78.1312-56.6272-78.1312-105.0624C907.0592 463.872 938.496 421.6832 985.2928 407.2448z" p-id="4845"></path></svg>